<mxfile host="app.diagrams.net" modified="2023-09-12T10:56:10.764Z" agent="Mozilla/5.0 (Windows NT 10.0; Win64; x64) AppleWebKit/537.36 (KHTML, like Gecko) Chrome/116.0.0.0 Safari/537.36" etag="5GydioTW5MKfh8zbhF_Z" version="21.7.4" type="device">
  <diagram id="1C0KFWOz3Z1hnWo1IfDT" name="Deep Convolutional Network (DCN)">
    <mxGraphModel dx="1434" dy="790" grid="1" gridSize="10" guides="1" tooltips="1" connect="1" arrows="1" fold="1" page="1" pageScale="1" pageWidth="850" pageHeight="1100" math="0" shadow="0">
      <root>
        <mxCell id="0" />
        <mxCell id="1" parent="0" />
        <mxCell id="bQ-h9A7zp6dqB7Uuxyai-96" value="" style="rounded=0;whiteSpace=wrap;html=1;" parent="1" vertex="1">
          <mxGeometry x="200" y="200" width="150" height="84" as="geometry" />
        </mxCell>
        <mxCell id="fVWs-iEzJgbNQNDK8qAs-17" value="" style="rounded=0;whiteSpace=wrap;html=1;" vertex="1" parent="1">
          <mxGeometry x="200" y="302" width="150" height="84" as="geometry" />
        </mxCell>
        <mxCell id="4O7t7U1OnSMsDp06-u0s-186" value="&lt;font style=&quot;font-size: 24px;&quot;&gt;Neural Transplantation - Linear Layer&lt;/font&gt;" style="text;html=1;strokeColor=none;fillColor=none;align=center;verticalAlign=middle;whiteSpace=wrap;rounded=0;shadow=1;strokeWidth=1.5;" parent="1" vertex="1">
          <mxGeometry x="110" y="160" width="520" height="30" as="geometry" />
        </mxCell>
        <mxCell id="bQ-h9A7zp6dqB7Uuxyai-19" value="" style="ellipse;whiteSpace=wrap;html=1;aspect=fixed;strokeColor=#d6b656;fillColor=#fff2cc;" parent="1" vertex="1">
          <mxGeometry x="80" y="404" width="40" height="40" as="geometry" />
        </mxCell>
        <mxCell id="bQ-h9A7zp6dqB7Uuxyai-20" value="" style="ellipse;whiteSpace=wrap;html=1;aspect=fixed;strokeColor=#d6b656;fillColor=#fff2cc;" parent="1" vertex="1">
          <mxGeometry x="80" y="346" width="40" height="40" as="geometry" />
        </mxCell>
        <mxCell id="bQ-h9A7zp6dqB7Uuxyai-52" value="" style="ellipse;whiteSpace=wrap;html=1;aspect=fixed;strokeColor=#B85450;fillColor=#f8cecc;" parent="1" vertex="1">
          <mxGeometry x="400" y="346" width="40" height="40" as="geometry" />
        </mxCell>
        <mxCell id="bQ-h9A7zp6dqB7Uuxyai-53" value="" style="ellipse;whiteSpace=wrap;html=1;aspect=fixed;strokeColor=#b85450;fillColor=#f8cecc;" parent="1" vertex="1">
          <mxGeometry x="400" y="404" width="40" height="40" as="geometry" />
        </mxCell>
        <mxCell id="bQ-h9A7zp6dqB7Uuxyai-78" value="" style="endArrow=none;html=1;rounded=0;" parent="1" source="bQ-h9A7zp6dqB7Uuxyai-20" target="fVWs-iEzJgbNQNDK8qAs-18" edge="1">
          <mxGeometry width="50" height="50" relative="1" as="geometry">
            <mxPoint x="313" y="525" as="sourcePoint" />
            <mxPoint x="200.936311338025" y="336.0477908858678" as="targetPoint" />
          </mxGeometry>
        </mxCell>
        <mxCell id="bQ-h9A7zp6dqB7Uuxyai-79" value="" style="endArrow=none;html=1;rounded=0;" parent="1" source="bQ-h9A7zp6dqB7Uuxyai-20" target="fVWs-iEzJgbNQNDK8qAs-19" edge="1">
          <mxGeometry width="50" height="50" relative="1" as="geometry">
            <mxPoint x="323" y="535" as="sourcePoint" />
            <mxPoint x="200.05730331562495" y="368.4871057687716" as="targetPoint" />
          </mxGeometry>
        </mxCell>
        <mxCell id="bQ-h9A7zp6dqB7Uuxyai-80" value="" style="endArrow=none;html=1;rounded=0;" parent="1" source="bQ-h9A7zp6dqB7Uuxyai-19" target="fVWs-iEzJgbNQNDK8qAs-18" edge="1">
          <mxGeometry width="50" height="50" relative="1" as="geometry">
            <mxPoint x="333" y="545" as="sourcePoint" />
            <mxPoint x="203.74808102254656" y="341.6565487838286" as="targetPoint" />
          </mxGeometry>
        </mxCell>
        <mxCell id="bQ-h9A7zp6dqB7Uuxyai-81" value="" style="endArrow=none;html=1;rounded=0;" parent="1" source="bQ-h9A7zp6dqB7Uuxyai-19" target="fVWs-iEzJgbNQNDK8qAs-19" edge="1">
          <mxGeometry width="50" height="50" relative="1" as="geometry">
            <mxPoint x="343" y="555" as="sourcePoint" />
            <mxPoint x="200.936311338025" y="376.0477908858678" as="targetPoint" />
          </mxGeometry>
        </mxCell>
        <mxCell id="bQ-h9A7zp6dqB7Uuxyai-86" value="" style="endArrow=none;html=1;rounded=0;fillColor=#f8cecc;strokeColor=#B85450;" parent="1" source="fVWs-iEzJgbNQNDK8qAs-20" target="bQ-h9A7zp6dqB7Uuxyai-52" edge="1">
          <mxGeometry width="50" height="50" relative="1" as="geometry">
            <mxPoint x="339.1610272288092" y="335.7319312222934" as="sourcePoint" />
            <mxPoint x="467" y="513" as="targetPoint" />
          </mxGeometry>
        </mxCell>
        <mxCell id="bQ-h9A7zp6dqB7Uuxyai-87" value="" style="endArrow=none;html=1;rounded=0;fillColor=#f8cecc;strokeColor=#b85450;" parent="1" source="fVWs-iEzJgbNQNDK8qAs-20" target="bQ-h9A7zp6dqB7Uuxyai-53" edge="1">
          <mxGeometry width="50" height="50" relative="1" as="geometry">
            <mxPoint x="336.4291661417883" y="341.405371536448" as="sourcePoint" />
            <mxPoint x="477" y="523" as="targetPoint" />
          </mxGeometry>
        </mxCell>
        <mxCell id="bQ-h9A7zp6dqB7Uuxyai-88" value="" style="endArrow=none;html=1;rounded=0;fillColor=#f8cecc;strokeColor=#b85450;" parent="1" source="fVWs-iEzJgbNQNDK8qAs-21" target="bQ-h9A7zp6dqB7Uuxyai-53" edge="1">
          <mxGeometry width="50" height="50" relative="1" as="geometry">
            <mxPoint x="339.1610272288092" y="375.7319312222934" as="sourcePoint" />
            <mxPoint x="487" y="533" as="targetPoint" />
          </mxGeometry>
        </mxCell>
        <mxCell id="bQ-h9A7zp6dqB7Uuxyai-89" value="" style="endArrow=none;html=1;rounded=0;fillColor=#f8cecc;strokeColor=#b85450;" parent="1" source="fVWs-iEzJgbNQNDK8qAs-21" target="bQ-h9A7zp6dqB7Uuxyai-52" edge="1">
          <mxGeometry width="50" height="50" relative="1" as="geometry">
            <mxPoint x="339.9106792369214" y="368.11191834822307" as="sourcePoint" />
            <mxPoint x="497" y="543" as="targetPoint" />
          </mxGeometry>
        </mxCell>
        <mxCell id="bQ-h9A7zp6dqB7Uuxyai-136" value="" style="endArrow=none;html=1;rounded=0;fillColor=#f8cecc;strokeColor=#b85450;" parent="1" edge="1">
          <mxGeometry width="50" height="50" relative="1" as="geometry">
            <mxPoint x="400" y="279.58" as="sourcePoint" />
            <mxPoint x="460" y="280" as="targetPoint" />
          </mxGeometry>
        </mxCell>
        <mxCell id="bQ-h9A7zp6dqB7Uuxyai-137" value="weight 0" style="text;html=1;strokeColor=none;fillColor=none;align=center;verticalAlign=middle;whiteSpace=wrap;rounded=0;shadow=1;strokeWidth=1.5;" parent="1" vertex="1">
          <mxGeometry x="450" y="232" width="160" height="20" as="geometry" />
        </mxCell>
        <mxCell id="bQ-h9A7zp6dqB7Uuxyai-138" value="1/4 * weight" style="text;html=1;strokeColor=none;fillColor=none;align=center;verticalAlign=middle;whiteSpace=wrap;rounded=0;shadow=1;strokeWidth=1.5;" parent="1" vertex="1">
          <mxGeometry x="460" y="270" width="140" height="20" as="geometry" />
        </mxCell>
        <mxCell id="bQ-h9A7zp6dqB7Uuxyai-139" value="Input" style="text;html=1;strokeColor=none;fillColor=none;align=center;verticalAlign=middle;whiteSpace=wrap;rounded=0;shadow=1;strokeWidth=1.5;" parent="1" vertex="1">
          <mxGeometry x="50" y="448" width="100" height="20" as="geometry" />
        </mxCell>
        <mxCell id="bQ-h9A7zp6dqB7Uuxyai-140" value="Hidden Layer" style="text;html=1;strokeColor=none;fillColor=none;align=center;verticalAlign=middle;whiteSpace=wrap;rounded=0;shadow=1;strokeWidth=1.5;" parent="1" vertex="1">
          <mxGeometry x="220" y="594" width="100" height="20" as="geometry" />
        </mxCell>
        <mxCell id="bQ-h9A7zp6dqB7Uuxyai-141" value="Output" style="text;html=1;strokeColor=none;fillColor=none;align=center;verticalAlign=middle;whiteSpace=wrap;rounded=0;shadow=1;strokeWidth=1.5;" parent="1" vertex="1">
          <mxGeometry x="370" y="448" width="100" height="20" as="geometry" />
        </mxCell>
        <mxCell id="bQ-h9A7zp6dqB7Uuxyai-142" value="model 1" style="text;html=1;strokeColor=none;fillColor=none;align=center;verticalAlign=middle;whiteSpace=wrap;rounded=0;shadow=1;strokeWidth=1.5;" parent="1" vertex="1">
          <mxGeometry x="110" y="200" width="100" height="20" as="geometry" />
        </mxCell>
        <mxCell id="bQ-h9A7zp6dqB7Uuxyai-145" value="model 4" style="text;html=1;strokeColor=none;fillColor=none;align=center;verticalAlign=middle;whiteSpace=wrap;rounded=0;shadow=1;strokeWidth=1.5;" parent="1" vertex="1">
          <mxGeometry x="110" y="572" width="100" height="20" as="geometry" />
        </mxCell>
        <mxCell id="fVWs-iEzJgbNQNDK8qAs-18" value="" style="ellipse;whiteSpace=wrap;html=1;aspect=fixed;strokeColor=#82b366;fillColor=#d5e8d4;" vertex="1" parent="1">
          <mxGeometry x="206" y="312" width="30" height="30" as="geometry" />
        </mxCell>
        <mxCell id="fVWs-iEzJgbNQNDK8qAs-19" value="" style="ellipse;whiteSpace=wrap;html=1;aspect=fixed;strokeColor=#82b366;fillColor=#d5e8d4;" vertex="1" parent="1">
          <mxGeometry x="205" y="350" width="30" height="30" as="geometry" />
        </mxCell>
        <mxCell id="fVWs-iEzJgbNQNDK8qAs-20" value="" style="ellipse;whiteSpace=wrap;html=1;aspect=fixed;strokeColor=#82b366;fillColor=#d5e8d4;" vertex="1" parent="1">
          <mxGeometry x="310" y="312" width="30" height="30" as="geometry" />
        </mxCell>
        <mxCell id="fVWs-iEzJgbNQNDK8qAs-21" value="" style="ellipse;whiteSpace=wrap;html=1;aspect=fixed;strokeColor=#82b366;fillColor=#d5e8d4;" vertex="1" parent="1">
          <mxGeometry x="310" y="350" width="30" height="30" as="geometry" />
        </mxCell>
        <mxCell id="fVWs-iEzJgbNQNDK8qAs-28" value="" style="rounded=0;whiteSpace=wrap;html=1;" vertex="1" parent="1">
          <mxGeometry x="200" y="404" width="150" height="84" as="geometry" />
        </mxCell>
        <mxCell id="fVWs-iEzJgbNQNDK8qAs-29" value="" style="ellipse;whiteSpace=wrap;html=1;aspect=fixed;strokeColor=#82b366;fillColor=#d5e8d4;" vertex="1" parent="1">
          <mxGeometry x="206" y="414" width="30" height="30" as="geometry" />
        </mxCell>
        <mxCell id="fVWs-iEzJgbNQNDK8qAs-30" value="" style="ellipse;whiteSpace=wrap;html=1;aspect=fixed;strokeColor=#82b366;fillColor=#d5e8d4;" vertex="1" parent="1">
          <mxGeometry x="205" y="452" width="30" height="30" as="geometry" />
        </mxCell>
        <mxCell id="fVWs-iEzJgbNQNDK8qAs-31" value="" style="ellipse;whiteSpace=wrap;html=1;aspect=fixed;strokeColor=#82b366;fillColor=#d5e8d4;" vertex="1" parent="1">
          <mxGeometry x="310" y="414" width="30" height="30" as="geometry" />
        </mxCell>
        <mxCell id="fVWs-iEzJgbNQNDK8qAs-32" value="" style="ellipse;whiteSpace=wrap;html=1;aspect=fixed;strokeColor=#82b366;fillColor=#d5e8d4;" vertex="1" parent="1">
          <mxGeometry x="310" y="452" width="30" height="30" as="geometry" />
        </mxCell>
        <mxCell id="fVWs-iEzJgbNQNDK8qAs-33" value="" style="rounded=0;whiteSpace=wrap;html=1;" vertex="1" parent="1">
          <mxGeometry x="200" y="506" width="150" height="84" as="geometry" />
        </mxCell>
        <mxCell id="fVWs-iEzJgbNQNDK8qAs-34" value="" style="ellipse;whiteSpace=wrap;html=1;aspect=fixed;strokeColor=#82b366;fillColor=#d5e8d4;" vertex="1" parent="1">
          <mxGeometry x="206" y="516" width="30" height="30" as="geometry" />
        </mxCell>
        <mxCell id="fVWs-iEzJgbNQNDK8qAs-35" value="" style="ellipse;whiteSpace=wrap;html=1;aspect=fixed;strokeColor=#82b366;fillColor=#d5e8d4;" vertex="1" parent="1">
          <mxGeometry x="205" y="554" width="30" height="30" as="geometry" />
        </mxCell>
        <mxCell id="fVWs-iEzJgbNQNDK8qAs-36" value="" style="ellipse;whiteSpace=wrap;html=1;aspect=fixed;strokeColor=#82b366;fillColor=#d5e8d4;" vertex="1" parent="1">
          <mxGeometry x="310" y="516" width="30" height="30" as="geometry" />
        </mxCell>
        <mxCell id="fVWs-iEzJgbNQNDK8qAs-37" value="" style="ellipse;whiteSpace=wrap;html=1;aspect=fixed;strokeColor=#82b366;fillColor=#d5e8d4;" vertex="1" parent="1">
          <mxGeometry x="310" y="554" width="30" height="30" as="geometry" />
        </mxCell>
        <mxCell id="fVWs-iEzJgbNQNDK8qAs-40" value="" style="endArrow=none;html=1;rounded=0;" edge="1" parent="1" source="fVWs-iEzJgbNQNDK8qAs-20" target="fVWs-iEzJgbNQNDK8qAs-18">
          <mxGeometry width="50" height="50" relative="1" as="geometry">
            <mxPoint x="129" y="370" as="sourcePoint" />
            <mxPoint x="217" y="342" as="targetPoint" />
          </mxGeometry>
        </mxCell>
        <mxCell id="fVWs-iEzJgbNQNDK8qAs-41" value="" style="endArrow=none;html=1;rounded=0;" edge="1" parent="1" source="fVWs-iEzJgbNQNDK8qAs-21" target="fVWs-iEzJgbNQNDK8qAs-18">
          <mxGeometry width="50" height="50" relative="1" as="geometry">
            <mxPoint x="320" y="337" as="sourcePoint" />
            <mxPoint x="246" y="337" as="targetPoint" />
          </mxGeometry>
        </mxCell>
        <mxCell id="fVWs-iEzJgbNQNDK8qAs-42" value="" style="endArrow=none;html=1;rounded=0;" edge="1" parent="1" source="fVWs-iEzJgbNQNDK8qAs-20" target="fVWs-iEzJgbNQNDK8qAs-19">
          <mxGeometry width="50" height="50" relative="1" as="geometry">
            <mxPoint x="330" y="347" as="sourcePoint" />
            <mxPoint x="256" y="347" as="targetPoint" />
          </mxGeometry>
        </mxCell>
        <mxCell id="fVWs-iEzJgbNQNDK8qAs-43" value="" style="endArrow=none;html=1;rounded=0;" edge="1" parent="1" source="fVWs-iEzJgbNQNDK8qAs-21" target="fVWs-iEzJgbNQNDK8qAs-19">
          <mxGeometry width="50" height="50" relative="1" as="geometry">
            <mxPoint x="340" y="357" as="sourcePoint" />
            <mxPoint x="266" y="357" as="targetPoint" />
          </mxGeometry>
        </mxCell>
        <mxCell id="fVWs-iEzJgbNQNDK8qAs-48" value="" style="endArrow=none;dashed=1;html=1;rounded=0;" edge="1" parent="1">
          <mxGeometry width="50" height="50" relative="1" as="geometry">
            <mxPoint x="400" y="240" as="sourcePoint" />
            <mxPoint x="460" y="240" as="targetPoint" />
          </mxGeometry>
        </mxCell>
        <mxCell id="bQ-h9A7zp6dqB7Uuxyai-24" value="" style="ellipse;whiteSpace=wrap;html=1;aspect=fixed;strokeColor=#82b366;fillColor=#d5e8d4;" parent="1" vertex="1">
          <mxGeometry x="206" y="210" width="30" height="30" as="geometry" />
        </mxCell>
        <mxCell id="fVWs-iEzJgbNQNDK8qAs-15" value="" style="ellipse;whiteSpace=wrap;html=1;aspect=fixed;strokeColor=#82b366;fillColor=#d5e8d4;" vertex="1" parent="1">
          <mxGeometry x="310" y="210" width="30" height="30" as="geometry" />
        </mxCell>
        <mxCell id="fVWs-iEzJgbNQNDK8qAs-14" value="" style="ellipse;whiteSpace=wrap;html=1;aspect=fixed;strokeColor=#82b366;fillColor=#d5e8d4;" vertex="1" parent="1">
          <mxGeometry x="205" y="248" width="30" height="30" as="geometry" />
        </mxCell>
        <mxCell id="fVWs-iEzJgbNQNDK8qAs-16" value="" style="ellipse;whiteSpace=wrap;html=1;aspect=fixed;strokeColor=#82b366;fillColor=#d5e8d4;" vertex="1" parent="1">
          <mxGeometry x="310" y="248" width="30" height="30" as="geometry" />
        </mxCell>
        <mxCell id="fVWs-iEzJgbNQNDK8qAs-69" value="" style="endArrow=none;dashed=1;html=1;rounded=0;" edge="1" parent="1" source="fVWs-iEzJgbNQNDK8qAs-18" target="fVWs-iEzJgbNQNDK8qAs-31">
          <mxGeometry width="50" height="50" relative="1" as="geometry">
            <mxPoint x="243" y="383" as="sourcePoint" />
            <mxPoint x="322" y="431" as="targetPoint" />
          </mxGeometry>
        </mxCell>
        <mxCell id="fVWs-iEzJgbNQNDK8qAs-70" value="" style="endArrow=none;dashed=1;html=1;rounded=0;" edge="1" parent="1" source="fVWs-iEzJgbNQNDK8qAs-18" target="fVWs-iEzJgbNQNDK8qAs-32">
          <mxGeometry width="50" height="50" relative="1" as="geometry">
            <mxPoint x="253" y="393" as="sourcePoint" />
            <mxPoint x="332" y="441" as="targetPoint" />
          </mxGeometry>
        </mxCell>
        <mxCell id="fVWs-iEzJgbNQNDK8qAs-79" value="" style="endArrow=none;dashed=1;html=1;rounded=0;" edge="1" parent="1" source="fVWs-iEzJgbNQNDK8qAs-18" target="fVWs-iEzJgbNQNDK8qAs-36">
          <mxGeometry width="50" height="50" relative="1" as="geometry">
            <mxPoint x="242" y="348" as="sourcePoint" />
            <mxPoint x="324" y="429" as="targetPoint" />
          </mxGeometry>
        </mxCell>
        <mxCell id="fVWs-iEzJgbNQNDK8qAs-80" value="" style="endArrow=none;dashed=1;html=1;rounded=0;" edge="1" parent="1" source="fVWs-iEzJgbNQNDK8qAs-18" target="fVWs-iEzJgbNQNDK8qAs-37">
          <mxGeometry width="50" height="50" relative="1" as="geometry">
            <mxPoint x="252" y="358" as="sourcePoint" />
            <mxPoint x="334" y="439" as="targetPoint" />
          </mxGeometry>
        </mxCell>
        <mxCell id="fVWs-iEzJgbNQNDK8qAs-81" value="" style="endArrow=none;dashed=1;html=1;rounded=0;" edge="1" parent="1" source="fVWs-iEzJgbNQNDK8qAs-18" target="fVWs-iEzJgbNQNDK8qAs-16">
          <mxGeometry width="50" height="50" relative="1" as="geometry">
            <mxPoint x="262" y="368" as="sourcePoint" />
            <mxPoint x="344" y="449" as="targetPoint" />
          </mxGeometry>
        </mxCell>
        <mxCell id="fVWs-iEzJgbNQNDK8qAs-82" value="" style="endArrow=none;dashed=1;html=1;rounded=0;" edge="1" parent="1" source="fVWs-iEzJgbNQNDK8qAs-18" target="fVWs-iEzJgbNQNDK8qAs-15">
          <mxGeometry width="50" height="50" relative="1" as="geometry">
            <mxPoint x="272" y="378" as="sourcePoint" />
            <mxPoint x="354" y="459" as="targetPoint" />
          </mxGeometry>
        </mxCell>
        <mxCell id="fVWs-iEzJgbNQNDK8qAs-83" value="" style="endArrow=none;html=1;rounded=0;fillColor=#f8cecc;strokeColor=#b85450;" edge="1" parent="1" source="fVWs-iEzJgbNQNDK8qAs-16" target="bQ-h9A7zp6dqB7Uuxyai-52">
          <mxGeometry width="50" height="50" relative="1" as="geometry">
            <mxPoint x="410" y="289.58" as="sourcePoint" />
            <mxPoint x="470" y="290" as="targetPoint" />
          </mxGeometry>
        </mxCell>
        <mxCell id="fVWs-iEzJgbNQNDK8qAs-84" value="" style="endArrow=none;html=1;rounded=0;fillColor=#f8cecc;strokeColor=#b85450;" edge="1" parent="1" source="fVWs-iEzJgbNQNDK8qAs-16" target="bQ-h9A7zp6dqB7Uuxyai-53">
          <mxGeometry width="50" height="50" relative="1" as="geometry">
            <mxPoint x="420" y="299.58" as="sourcePoint" />
            <mxPoint x="480" y="300" as="targetPoint" />
          </mxGeometry>
        </mxCell>
        <mxCell id="fVWs-iEzJgbNQNDK8qAs-85" value="" style="endArrow=none;html=1;rounded=0;fillColor=#f8cecc;strokeColor=#b85450;" edge="1" parent="1" source="fVWs-iEzJgbNQNDK8qAs-15" target="bQ-h9A7zp6dqB7Uuxyai-53">
          <mxGeometry width="50" height="50" relative="1" as="geometry">
            <mxPoint x="430" y="309.58" as="sourcePoint" />
            <mxPoint x="490" y="310" as="targetPoint" />
          </mxGeometry>
        </mxCell>
        <mxCell id="fVWs-iEzJgbNQNDK8qAs-86" value="" style="endArrow=none;html=1;rounded=0;fillColor=#f8cecc;strokeColor=#b85450;" edge="1" parent="1" source="fVWs-iEzJgbNQNDK8qAs-15" target="bQ-h9A7zp6dqB7Uuxyai-52">
          <mxGeometry width="50" height="50" relative="1" as="geometry">
            <mxPoint x="440" y="319.58" as="sourcePoint" />
            <mxPoint x="500" y="320" as="targetPoint" />
          </mxGeometry>
        </mxCell>
        <mxCell id="fVWs-iEzJgbNQNDK8qAs-87" value="" style="endArrow=none;html=1;rounded=0;fillColor=#f8cecc;strokeColor=#b85450;" edge="1" parent="1" source="fVWs-iEzJgbNQNDK8qAs-31" target="bQ-h9A7zp6dqB7Uuxyai-52">
          <mxGeometry width="50" height="50" relative="1" as="geometry">
            <mxPoint x="450" y="329.58" as="sourcePoint" />
            <mxPoint x="510" y="330" as="targetPoint" />
          </mxGeometry>
        </mxCell>
        <mxCell id="fVWs-iEzJgbNQNDK8qAs-88" value="" style="endArrow=none;html=1;rounded=0;fillColor=#f8cecc;strokeColor=#b85450;" edge="1" parent="1" source="fVWs-iEzJgbNQNDK8qAs-32" target="bQ-h9A7zp6dqB7Uuxyai-52">
          <mxGeometry width="50" height="50" relative="1" as="geometry">
            <mxPoint x="460" y="339.58" as="sourcePoint" />
            <mxPoint x="520" y="340" as="targetPoint" />
          </mxGeometry>
        </mxCell>
        <mxCell id="fVWs-iEzJgbNQNDK8qAs-89" value="" style="endArrow=none;html=1;rounded=0;fillColor=#f8cecc;strokeColor=#b85450;" edge="1" parent="1" source="fVWs-iEzJgbNQNDK8qAs-31" target="bQ-h9A7zp6dqB7Uuxyai-53">
          <mxGeometry width="50" height="50" relative="1" as="geometry">
            <mxPoint x="470" y="349.58" as="sourcePoint" />
            <mxPoint x="530" y="350" as="targetPoint" />
          </mxGeometry>
        </mxCell>
        <mxCell id="fVWs-iEzJgbNQNDK8qAs-90" value="" style="endArrow=none;html=1;rounded=0;fillColor=#f8cecc;strokeColor=#b85450;" edge="1" parent="1" source="fVWs-iEzJgbNQNDK8qAs-32" target="bQ-h9A7zp6dqB7Uuxyai-53">
          <mxGeometry width="50" height="50" relative="1" as="geometry">
            <mxPoint x="480" y="359.58" as="sourcePoint" />
            <mxPoint x="540" y="360" as="targetPoint" />
          </mxGeometry>
        </mxCell>
        <mxCell id="fVWs-iEzJgbNQNDK8qAs-91" value="" style="endArrow=none;html=1;rounded=0;fillColor=#f8cecc;strokeColor=#b85450;" edge="1" parent="1" source="fVWs-iEzJgbNQNDK8qAs-36" target="bQ-h9A7zp6dqB7Uuxyai-52">
          <mxGeometry width="50" height="50" relative="1" as="geometry">
            <mxPoint x="490" y="369.58" as="sourcePoint" />
            <mxPoint x="550" y="370" as="targetPoint" />
          </mxGeometry>
        </mxCell>
        <mxCell id="fVWs-iEzJgbNQNDK8qAs-92" value="" style="endArrow=none;html=1;rounded=0;fillColor=#f8cecc;strokeColor=#b85450;" edge="1" parent="1" source="fVWs-iEzJgbNQNDK8qAs-37" target="bQ-h9A7zp6dqB7Uuxyai-52">
          <mxGeometry width="50" height="50" relative="1" as="geometry">
            <mxPoint x="500" y="379.58" as="sourcePoint" />
            <mxPoint x="560" y="380" as="targetPoint" />
          </mxGeometry>
        </mxCell>
        <mxCell id="fVWs-iEzJgbNQNDK8qAs-93" value="" style="endArrow=none;html=1;rounded=0;fillColor=#f8cecc;strokeColor=#b85450;" edge="1" parent="1" source="fVWs-iEzJgbNQNDK8qAs-36" target="bQ-h9A7zp6dqB7Uuxyai-53">
          <mxGeometry width="50" height="50" relative="1" as="geometry">
            <mxPoint x="510" y="389.58" as="sourcePoint" />
            <mxPoint x="570" y="390" as="targetPoint" />
          </mxGeometry>
        </mxCell>
        <mxCell id="fVWs-iEzJgbNQNDK8qAs-94" value="" style="endArrow=none;html=1;rounded=0;fillColor=#f8cecc;strokeColor=#b85450;" edge="1" parent="1" source="fVWs-iEzJgbNQNDK8qAs-37" target="bQ-h9A7zp6dqB7Uuxyai-53">
          <mxGeometry width="50" height="50" relative="1" as="geometry">
            <mxPoint x="520" y="399.58" as="sourcePoint" />
            <mxPoint x="580" y="400" as="targetPoint" />
          </mxGeometry>
        </mxCell>
        <mxCell id="fVWs-iEzJgbNQNDK8qAs-95" value="" style="endArrow=none;html=1;rounded=0;" edge="1" parent="1" source="bQ-h9A7zp6dqB7Uuxyai-19" target="fVWs-iEzJgbNQNDK8qAs-29">
          <mxGeometry width="50" height="50" relative="1" as="geometry">
            <mxPoint x="128" y="425" as="sourcePoint" />
            <mxPoint x="217" y="382" as="targetPoint" />
          </mxGeometry>
        </mxCell>
        <mxCell id="fVWs-iEzJgbNQNDK8qAs-96" value="" style="endArrow=none;html=1;rounded=0;" edge="1" parent="1" source="bQ-h9A7zp6dqB7Uuxyai-19" target="fVWs-iEzJgbNQNDK8qAs-30">
          <mxGeometry width="50" height="50" relative="1" as="geometry">
            <mxPoint x="138" y="435" as="sourcePoint" />
            <mxPoint x="227" y="392" as="targetPoint" />
          </mxGeometry>
        </mxCell>
        <mxCell id="fVWs-iEzJgbNQNDK8qAs-97" value="" style="endArrow=none;html=1;rounded=0;" edge="1" parent="1" source="bQ-h9A7zp6dqB7Uuxyai-20" target="fVWs-iEzJgbNQNDK8qAs-29">
          <mxGeometry width="50" height="50" relative="1" as="geometry">
            <mxPoint x="148" y="445" as="sourcePoint" />
            <mxPoint x="237" y="402" as="targetPoint" />
          </mxGeometry>
        </mxCell>
        <mxCell id="fVWs-iEzJgbNQNDK8qAs-98" value="" style="endArrow=none;html=1;rounded=0;" edge="1" parent="1" source="bQ-h9A7zp6dqB7Uuxyai-20" target="fVWs-iEzJgbNQNDK8qAs-30">
          <mxGeometry width="50" height="50" relative="1" as="geometry">
            <mxPoint x="158" y="455" as="sourcePoint" />
            <mxPoint x="247" y="412" as="targetPoint" />
          </mxGeometry>
        </mxCell>
        <mxCell id="fVWs-iEzJgbNQNDK8qAs-99" value="" style="endArrow=none;html=1;rounded=0;" edge="1" parent="1" source="bQ-h9A7zp6dqB7Uuxyai-20" target="fVWs-iEzJgbNQNDK8qAs-34">
          <mxGeometry width="50" height="50" relative="1" as="geometry">
            <mxPoint x="168" y="465" as="sourcePoint" />
            <mxPoint x="257" y="422" as="targetPoint" />
          </mxGeometry>
        </mxCell>
        <mxCell id="fVWs-iEzJgbNQNDK8qAs-100" value="" style="endArrow=none;html=1;rounded=0;" edge="1" parent="1" source="bQ-h9A7zp6dqB7Uuxyai-20" target="fVWs-iEzJgbNQNDK8qAs-35">
          <mxGeometry width="50" height="50" relative="1" as="geometry">
            <mxPoint x="178" y="475" as="sourcePoint" />
            <mxPoint x="267" y="432" as="targetPoint" />
          </mxGeometry>
        </mxCell>
        <mxCell id="fVWs-iEzJgbNQNDK8qAs-101" value="" style="endArrow=none;html=1;rounded=0;" edge="1" parent="1" source="bQ-h9A7zp6dqB7Uuxyai-19" target="fVWs-iEzJgbNQNDK8qAs-34">
          <mxGeometry width="50" height="50" relative="1" as="geometry">
            <mxPoint x="188" y="485" as="sourcePoint" />
            <mxPoint x="277" y="442" as="targetPoint" />
          </mxGeometry>
        </mxCell>
        <mxCell id="fVWs-iEzJgbNQNDK8qAs-102" value="" style="endArrow=none;html=1;rounded=0;" edge="1" parent="1" source="bQ-h9A7zp6dqB7Uuxyai-19" target="fVWs-iEzJgbNQNDK8qAs-35">
          <mxGeometry width="50" height="50" relative="1" as="geometry">
            <mxPoint x="198" y="495" as="sourcePoint" />
            <mxPoint x="287" y="452" as="targetPoint" />
          </mxGeometry>
        </mxCell>
        <mxCell id="fVWs-iEzJgbNQNDK8qAs-103" value="" style="endArrow=none;html=1;rounded=0;" edge="1" parent="1" source="bQ-h9A7zp6dqB7Uuxyai-20" target="fVWs-iEzJgbNQNDK8qAs-14">
          <mxGeometry width="50" height="50" relative="1" as="geometry">
            <mxPoint x="129" y="370" as="sourcePoint" />
            <mxPoint x="217" y="342" as="targetPoint" />
          </mxGeometry>
        </mxCell>
        <mxCell id="fVWs-iEzJgbNQNDK8qAs-104" value="" style="endArrow=none;html=1;rounded=0;" edge="1" parent="1" source="bQ-h9A7zp6dqB7Uuxyai-20" target="bQ-h9A7zp6dqB7Uuxyai-24">
          <mxGeometry width="50" height="50" relative="1" as="geometry">
            <mxPoint x="139" y="380" as="sourcePoint" />
            <mxPoint x="227" y="352" as="targetPoint" />
          </mxGeometry>
        </mxCell>
        <mxCell id="fVWs-iEzJgbNQNDK8qAs-105" value="" style="endArrow=none;html=1;rounded=0;" edge="1" parent="1" source="bQ-h9A7zp6dqB7Uuxyai-19" target="fVWs-iEzJgbNQNDK8qAs-14">
          <mxGeometry width="50" height="50" relative="1" as="geometry">
            <mxPoint x="149" y="390" as="sourcePoint" />
            <mxPoint x="237" y="362" as="targetPoint" />
          </mxGeometry>
        </mxCell>
        <mxCell id="fVWs-iEzJgbNQNDK8qAs-106" value="" style="endArrow=none;html=1;rounded=0;" edge="1" parent="1" source="bQ-h9A7zp6dqB7Uuxyai-19" target="bQ-h9A7zp6dqB7Uuxyai-24">
          <mxGeometry width="50" height="50" relative="1" as="geometry">
            <mxPoint x="159" y="400" as="sourcePoint" />
            <mxPoint x="247" y="372" as="targetPoint" />
          </mxGeometry>
        </mxCell>
      </root>
    </mxGraphModel>
  </diagram>
</mxfile>
